Coordinates
version=1
nRows=8
nColumns=40
inDegrees=yes

Units are S.I. units (second, meters, Newtons, ...)
Angles are in degrees.

endheader
time	pelvis_tilt	pelvis_list	pelvis_rotation	pelvis_tx	pelvis_ty	pelvis_tz	hip_flexion_r	hip_adduction_r	hip_rotation_r	knee_angle_r	knee_angle_r_beta	ankle_angle_r	subtalar_angle_r	mtp_angle_r	hip_flexion_l	hip_adduction_l	hip_rotation_l	knee_angle_l	knee_angle_l_beta	ankle_angle_l	subtalar_angle_l	mtp_angle_l	lumbar_extension	lumbar_bending	lumbar_rotation	arm_flex_r	arm_add_r	arm_rot_r	elbow_flex_r	pro_sup_r	wrist_flex_r	wrist_dev_r	arm_flex_l	arm_add_l	arm_rot_l	elbow_flex_l	pro_sup_l	wrist_flex_l	wrist_dev_l
     43.45000000	     -3.53810183	     -4.94397566	      0.96970751	      1.06106752	      0.93258579	      0.52949003	     10.83262633	      3.42482366	    -15.11129451	     15.55691240	     15.55691240	      9.65653293	      0.72226514	     -3.80416798	     27.22815622	    -13.40088947	      0.53742943	     57.31552016	     57.31552016	     11.79877416	    -17.36345429	     10.20311802	     -9.82777226	      6.03045307	      2.46025120	     14.89677730	    -16.25508419	     -3.14181969	     38.20362672	     45.30856950	      0.00000000	      0.00000000	      6.39506892	     -9.17151790	     -4.89859560	     32.40283447	     45.02567668	      0.00000000	      0.00000000
     43.46378571	     -3.61366829	     -4.80404205	      1.48703077	      1.05953518	      0.93294944	      0.52962382	     10.22845675	      3.39183732	    -15.32283062	     14.83692608	     14.83692608	      9.72217357	      0.63037750	     -3.82706590	     28.31600528	    -13.09738580	      0.74119287	     54.83043632	     54.83043632	     11.79164114	    -17.22593223	     10.09519656	     -9.86496709	      5.81904347	      2.27337157	     16.79718041	    -16.37704540	     -3.31608849	     39.66120538	     45.28107297	      0.00000000	      0.00000000	      5.55868669	     -8.93043196	     -4.83948928	     31.90252507	     45.02266569	      0.00000000	      0.00000000
     43.47757143	     -3.67099741	     -4.70633430	      1.99810066	      1.05806904	      0.93316910	      0.52973123	      9.57144760	      3.41226243	    -15.58008051	     14.02815147	     14.02815147	      9.46712872	      0.51829704	     -4.79362133	     29.11250658	    -12.84104204	      0.81450461	     51.85555310	     51.85555310	     10.95245836	    -17.15859316	      7.97277113	     -9.97013745	      5.68290292	      2.36449651	     17.93208981	    -16.89293805	     -3.34570715	     42.85344127	     45.20400708	      0.00000000	      0.00000000	      4.80940687	     -8.60621533	     -4.91632682	     31.56770057	     45.11473397	      0.00000000	      0.00000000
     43.49135714	     -3.74973954	     -4.58265504	      2.50441578	      1.05658098	      0.93335284	      0.52974508	      9.00796386	      3.38630121	    -15.80728213	     13.37971256	     13.37971256	      9.55241694	      0.45644029	     -4.80484603	     29.80922417	    -12.44974022	      0.94503940	     48.74075418	     48.74075418	     10.86045276	    -16.78119165	      8.15584403	    -10.00980254	      5.50194521	      2.24013098	     19.78712396	    -17.08118516	     -3.50449648	     44.14370901	     45.18113379	      0.00000000	      0.00000000	      4.03894354	     -8.39624529	     -4.80052017	     31.03272768	     45.10075535	      0.00000000	      0.00000000
     43.50514286	     -3.81938269	     -4.52551291	      3.02185510	      1.05514396	      0.93338251	      0.52965060	      8.43528463	      3.42295371	    -16.10364453	     12.72455534	     12.72455534	      9.60533665	      0.46966669	     -4.95923421	     30.35811505	    -12.08521238	      1.07796304	     45.41873591	     45.41873591	     10.68838649	    -16.19959330	      8.16640359	    -10.06480676	      5.42187950	      2.07260649	     21.56351698	    -17.28685123	     -3.67557036	     45.74480618	     45.14737829	      0.00000000	      0.00000000	      3.25404986	     -8.18097930	     -4.68876078	     30.52283567	     45.08858821	      0.00000000	      0.00000000
     43.51892857	     -3.89591278	     -4.55044362	      3.56327172	      1.05375329	      0.93322093	      0.52939257	      7.84465760	      3.53948436	    -16.53759709	     12.00294669	     12.00294669	      9.55012609	      0.56188976	     -5.42909753	     30.80833174	    -11.77894487	      1.15491971	     41.93391670	     41.93391670	     10.27419445	    -15.44874114	      7.64412893	    -10.11516119	      5.48698099	      1.93591523	     23.07127563	    -17.56888853	     -3.86888131	     48.03258343	     45.09386532	      0.00000000	      0.00000000	      2.49641276	     -7.94378835	     -4.56016195	     30.02024222	     45.08743004	      0.00000000	      0.00000000
     43.53271429	     -4.14089189	     -4.65696662	      4.03685884	      1.05222191	      0.93262145	      0.52913881	      7.71968713	      3.66853348	    -16.80674641	     11.80191506	     11.80191506	      9.70825552	      0.43654044	     -5.56442548	     31.40921059	    -11.50687917	      1.28260148	     38.48992408	     38.48992408	     10.23833294	    -14.31238953	      7.96954980	     -9.92808611	      5.55005152	      2.24512584	     24.55799930	    -18.15898364	     -4.06456911	     48.84610963	     45.08386338	      0.00000000	      0.00000000	      1.97723314	     -7.62563073	     -4.49968788	     29.80132466	     45.07413649	      0.00000000	      0.00000000
     43.54650000	     -4.16365185	     -4.50591093	      4.47744171	      1.05106256	      0.93255333	      0.52870875	      7.10401470	      3.58726859	    -17.05667820	     11.20036667	     11.20036667	      9.79627676	      0.54704645	     -5.75599341	     31.41487168	    -11.02041496	      1.04649335	     34.69704787	     34.69704787	     10.05465560	    -12.88473804	      8.11087055	    -10.01231924	      5.29812049	      2.02205162	     26.06561213	    -18.15876993	     -4.24730715	     50.49493777	     45.04473375	      0.00000000	      0.00000000	      1.23482368	     -7.51949539	     -4.41084866	     29.32602437	     45.05921144	      0.00000000	      0.00000000
